<?xml version="1.0" encoding="utf-8"?>
<!-- Generator: Adobe Illustrator 27.5.0, SVG Export Plug-In . SVG Version: 6.00 Build 0)  -->
<svg version="1.1" xmlns="http://www.w3.org/2000/svg" xmlns:xlink="http://www.w3.org/1999/xlink" x="0px" y="0px"
	 viewBox="0 0 500 500" style="enable-background:new 0 0 500 500;" xml:space="preserve">
<g id="BACKGROUND">
	<rect style="fill:#FFFFFF;" width="500" height="500"/>
</g>
<g id="OBJECTS">
	<g>
		<path style="fill:#EEE8FF;" d="M199.02,130.676c0.324-6.754-2.106-13.62-6.503-18.791c-5.164-6.073-12.866-9.803-20.802-10.548
			c-5.839-0.548-11.709,0.433-17.445,1.654c-15.664,3.334-29.092,15.249-40.438,26.235c-5.699,5.518-10.92,11.852-13.37,19.396
			c-15.078,46.42,56.292,21.664,72.998,12.718c11.249-6.024,22.678-14.629,25.136-27.15
			C198.824,133.028,198.964,131.854,199.02,130.676z"/>
		<path style="fill:#EEE8FF;" d="M417.661,316.964c6.545-14.962,11.32-30.668,13.998-46.816
			c10.66-64.277-10.768-154.337-87.931-160.018c-31.059-2.287-62.017,9.835-86.691,28.837
			c-20.504,15.791-37.332,36.247-59.193,50.098c-34.777,22.035-86.7,24.133-114.805,56.103
			c-20.991,23.878-26.17,59.371-16.706,89.723c9.464,30.352,32.16,55.523,59.362,71.98c27.202,16.457,58.678,24.785,90.248,28.547
			c32.482,3.871,66.359,2.926,96.582-9.59c16.851-6.978,32.127-17.379,45.939-29.29C383.69,374.784,404.341,347.413,417.661,316.964
			z"/>
	</g>
	<g style="opacity:0.5;">
		<g>
			<g>
				<g>
					<g>
						<rect x="214.867" y="146.597" style="fill:#C0A4FC;" width="44.124" height="2.462"/>
					</g>
					<g>
						<rect x="189.694" y="146.597" style="fill:#C0A4FC;" width="17.763" height="2.462"/>
					</g>
					<g>
						<rect x="173.562" y="146.597" style="fill:#C0A4FC;" width="11.449" height="2.462"/>
					</g>
					<g>
						<rect x="165.502" y="146.597" style="fill:#C0A4FC;" width="4.577" height="2.462"/>
					</g>
					<g>
						<rect x="111.794" y="146.597" style="fill:#C0A4FC;" width="47.351" height="2.462"/>
					</g>
				</g>
				<g>
					<g>
						<rect x="230.123" y="157.539" style="fill:#C0A4FC;" width="38.685" height="2.462"/>
					</g>
					<g>
						<rect x="170.657" y="157.539" style="fill:#C0A4FC;" width="50.274" height="2.462"/>
					</g>
					<g>
						<rect x="156.733" y="157.539" style="fill:#C0A4FC;" width="5.678" height="2.462"/>
					</g>
					<g>
						<rect x="121.009" y="157.539" style="fill:#C0A4FC;" width="25.314" height="2.462"/>
					</g>
					<g>
						<rect x="98.374" y="157.539" style="fill:#C0A4FC;" width="14.749" height="2.462"/>
					</g>
				</g>
				<g>
					<g>
						<rect x="205.544" y="175.46" style="fill:#C0A4FC;" width="44.125" height="2.462"/>
					</g>
					<g>
						<rect x="180.372" y="175.46" style="fill:#C0A4FC;" width="17.763" height="2.462"/>
					</g>
					<g>
						<rect x="164.239" y="175.46" style="fill:#C0A4FC;" width="11.449" height="2.462"/>
					</g>
					<g>
						<rect x="156.18" y="175.46" style="fill:#C0A4FC;" width="4.577" height="2.462"/>
					</g>
					<g>
						<rect x="102.471" y="175.46" style="fill:#C0A4FC;" width="47.351" height="2.462"/>
					</g>
				</g>
				<g>
					<g>
						<rect x="220.801" y="186.402" style="fill:#C0A4FC;" width="28.868" height="2.462"/>
					</g>
					<g>
						<rect x="170.171" y="186.402" style="fill:#C0A4FC;" width="41.438" height="2.462"/>
					</g>
					<g>
						<rect x="154.284" y="186.402" style="fill:#C0A4FC;" width="4.695" height="2.462"/>
					</g>
					<g>
						<rect x="111.687" y="186.402" style="fill:#C0A4FC;" width="35.132" height="2.462"/>
					</g>
					<g>
						<polygon style="fill:#C0A4FC;" points="106.713,188.864 96.738,188.864 96.805,186.402 106.78,186.402 						"/>
					</g>
				</g>
				<g>
					<g>
						<g>
							<rect x="220.801" y="209.46" style="fill:#C0A4FC;" width="28.868" height="2.462"/>
						</g>
						<g>
							<rect x="170.171" y="209.46" style="fill:#C0A4FC;" width="41.438" height="2.462"/>
						</g>
						<g>
							<rect x="154.284" y="209.46" style="fill:#C0A4FC;" width="4.695" height="2.462"/>
						</g>
						<g>
							<polygon style="fill:#C0A4FC;" points="146.819,211.922 111.687,211.586 111.687,209.126 146.819,209.46 							"/>
						</g>
						<g>
							<polygon style="fill:#C0A4FC;" points="106.713,211.586 96.738,211.586 96.805,209.126 106.78,209.126 							"/>
						</g>
					</g>
					<g>
						<polygon style="fill:#C0A4FC;" points="254.433,205.249 253.21,203.189 257.017,200.436 253.404,197.822 254.626,195.763 
							261.087,200.436 						"/>
					</g>
				</g>
				<g>
					<polygon style="fill:#C0A4FC;" points="267.763,153.483 261.109,148.67 267.569,143.997 268.792,146.056 265.179,148.67 
						268.986,151.424 					"/>
				</g>
				<g>
					<polygon style="fill:#C0A4FC;" points="100.688,152.734 99.466,150.676 103.272,147.921 99.66,145.308 100.882,143.249 
						107.342,147.921 					"/>
				</g>
			</g>
		</g>
		<g>
			<g>
				<g>
					<g>
						<rect x="376.25" y="251.364" style="fill:#C0A4FC;" width="43.385" height="2.449"/>
					</g>
					<g>
						<rect x="351.499" y="251.364" style="fill:#C0A4FC;" width="17.466" height="2.449"/>
					</g>
					<g>
						<rect x="335.637" y="251.364" style="fill:#C0A4FC;" width="11.257" height="2.449"/>
					</g>
					<g>
						<rect x="327.712" y="251.364" style="fill:#C0A4FC;" width="4.5" height="2.449"/>
					</g>
					<g>
						<rect x="274.903" y="251.364" style="fill:#C0A4FC;" width="46.558" height="2.449"/>
					</g>
				</g>
				<g>
					<g>
						<rect x="391.251" y="262.247" style="fill:#C0A4FC;" width="38.037" height="2.448"/>
					</g>
					<g>
						<rect x="332.781" y="262.247" style="fill:#C0A4FC;" width="49.432" height="2.448"/>
					</g>
					<g>
						<rect x="319.09" y="262.247" style="fill:#C0A4FC;" width="5.583" height="2.448"/>
					</g>
					<g>
						<rect x="283.964" y="262.247" style="fill:#C0A4FC;" width="24.89" height="2.448"/>
					</g>
					<g>
						<rect x="261.708" y="262.247" style="fill:#C0A4FC;" width="14.502" height="2.448"/>
					</g>
				</g>
				<g>
					<g>
						<rect x="376.25" y="292.795" style="fill:#C0A4FC;" width="43.385" height="2.448"/>
					</g>
					<g>
						<rect x="351.499" y="292.795" style="fill:#C0A4FC;" width="17.466" height="2.448"/>
					</g>
					<g>
						<rect x="335.637" y="292.795" style="fill:#C0A4FC;" width="11.257" height="2.448"/>
					</g>
					<g>
						<rect x="327.712" y="292.795" style="fill:#C0A4FC;" width="4.5" height="2.448"/>
					</g>
					<g>
						<rect x="274.903" y="292.795" style="fill:#C0A4FC;" width="46.558" height="2.448"/>
					</g>
				</g>
				<g>
					<g>
						<rect x="391.251" y="303.678" style="fill:#C0A4FC;" width="28.384" height="2.449"/>
					</g>
					<g>
						<rect x="341.469" y="303.678" style="fill:#C0A4FC;" width="40.744" height="2.449"/>
					</g>
					<g>
						<rect x="325.848" y="303.678" style="fill:#C0A4FC;" width="4.617" height="2.449"/>
					</g>
					<g>
						<rect x="283.964" y="303.678" style="fill:#C0A4FC;" width="34.544" height="2.449"/>
					</g>
					<g>
						<polygon style="fill:#C0A4FC;" points="279.073,306.126 269.266,306.126 269.332,303.678 279.14,303.678 						"/>
					</g>
				</g>
				<g>
					<g>
						<g>
							<rect x="405.211" y="315.729" style="fill:#C0A4FC;" width="14.425" height="2.449"/>
						</g>
						<g>
							<rect x="351.499" y="315.729" style="fill:#C0A4FC;" width="46.427" height="2.449"/>
						</g>
						<g>
							<rect x="329.845" y="315.729" style="fill:#C0A4FC;" width="13.188" height="2.449"/>
						</g>
						<g>
							<rect x="274.903" y="315.729" style="fill:#C0A4FC;" width="47.524" height="2.449"/>
						</g>
					</g>
					<g>
						<g>
							<rect x="391.251" y="326.612" style="fill:#C0A4FC;" width="28.384" height="2.448"/>
						</g>
						<g>
							<rect x="341.469" y="326.612" style="fill:#C0A4FC;" width="40.744" height="2.448"/>
						</g>
						<g>
							<rect x="325.848" y="326.612" style="fill:#C0A4FC;" width="4.617" height="2.448"/>
						</g>
						<g>
							<polygon style="fill:#C0A4FC;" points="318.508,329.06 283.964,328.726 283.964,326.279 318.508,326.612 							"/>
						</g>
						<g>
							<polygon style="fill:#C0A4FC;" points="279.073,328.726 269.266,328.726 269.332,326.279 279.14,326.279 							"/>
						</g>
					</g>
					<g>
						<polygon style="fill:#C0A4FC;" points="424.32,322.422 423.118,320.375 426.861,317.635 423.309,315.036 424.51,312.988 
							430.863,317.635 						"/>
					</g>
				</g>
				<g>
					<polygon style="fill:#C0A4FC;" points="428.261,258.212 421.718,253.426 428.07,248.778 429.272,250.826 425.72,253.426 
						429.463,256.165 					"/>
				</g>
				<g>
					<polygon style="fill:#C0A4FC;" points="263.983,257.468 262.782,255.42 266.524,252.681 262.972,250.082 264.174,248.034 
						270.526,252.681 					"/>
				</g>
			</g>
		</g>
		<g>
			<g>
				<g>
					<g>
						<rect x="186.812" y="236.958" style="fill:#C0A4FC;" width="43.386" height="2.449"/>
					</g>
					<g>
						<rect x="162.061" y="236.958" style="fill:#C0A4FC;" width="17.466" height="2.449"/>
					</g>
					<g>
						<rect x="146.198" y="236.958" style="fill:#C0A4FC;" width="11.257" height="2.449"/>
					</g>
					<g>
						<rect x="138.274" y="236.958" style="fill:#C0A4FC;" width="4.5" height="2.449"/>
					</g>
					<g>
						<rect x="85.465" y="236.958" style="fill:#C0A4FC;" width="46.558" height="2.449"/>
					</g>
				</g>
				<g>
					<g>
						<rect x="201.813" y="247.841" style="fill:#C0A4FC;" width="38.037" height="2.448"/>
					</g>
					<g>
						<rect x="143.343" y="247.841" style="fill:#C0A4FC;" width="49.432" height="2.448"/>
					</g>
					<g>
						<rect x="129.652" y="247.841" style="fill:#C0A4FC;" width="5.583" height="2.448"/>
					</g>
					<g>
						<rect x="94.526" y="247.841" style="fill:#C0A4FC;" width="24.89" height="2.448"/>
					</g>
					<g>
						<rect x="72.27" y="247.841" style="fill:#C0A4FC;" width="14.502" height="2.448"/>
					</g>
				</g>
				<g>
					<g>
						<rect x="193.595" y="267.836" style="fill:#C0A4FC;" width="43.386" height="2.448"/>
					</g>
					<g>
						<rect x="168.844" y="267.836" style="fill:#C0A4FC;" width="17.466" height="2.448"/>
					</g>
					<g>
						<rect x="152.982" y="267.836" style="fill:#C0A4FC;" width="11.257" height="2.448"/>
					</g>
					<g>
						<rect x="145.057" y="267.836" style="fill:#C0A4FC;" width="4.5" height="2.448"/>
					</g>
					<g>
						<rect x="100.986" y="267.836" style="fill:#C0A4FC;" width="26.883" height="2.448"/>
						<rect x="131.889" y="267.836" style="fill:#C0A4FC;" width="6.918" height="2.448"/>
					</g>
				</g>
				<g>
					<g>
						<rect x="208.596" y="278.719" style="fill:#C0A4FC;" width="28.384" height="2.449"/>
					</g>
					<g>
						<rect x="158.815" y="278.719" style="fill:#C0A4FC;" width="40.744" height="2.449"/>
					</g>
					<g>
						<rect x="143.193" y="278.719" style="fill:#C0A4FC;" width="4.617" height="2.449"/>
					</g>
					<g>
						<rect x="101.31" y="278.719" style="fill:#C0A4FC;" width="34.544" height="2.449"/>
					</g>
				</g>
				<g>
					<g>
						<g>
							<rect x="222.556" y="290.771" style="fill:#C0A4FC;" width="14.425" height="2.448"/>
						</g>
						<g>
							<rect x="168.844" y="290.771" style="fill:#C0A4FC;" width="46.427" height="2.448"/>
						</g>
						<g>
							<rect x="147.19" y="290.771" style="fill:#C0A4FC;" width="13.188" height="2.448"/>
						</g>
						<g>
							<rect x="100.986" y="290.771" style="fill:#C0A4FC;" width="6.784" height="2.449"/>
							<rect x="114.051" y="290.771" style="fill:#C0A4FC;" width="25.721" height="2.449"/>
						</g>
					</g>
					<g>
						<g>
							<rect x="208.596" y="301.653" style="fill:#C0A4FC;" width="28.384" height="2.449"/>
						</g>
						<g>
							<rect x="158.815" y="301.653" style="fill:#C0A4FC;" width="40.744" height="2.449"/>
						</g>
						<g>
							<rect x="143.193" y="301.653" style="fill:#C0A4FC;" width="4.617" height="2.449"/>
						</g>
						<g>
							<polygon style="fill:#C0A4FC;" points="135.854,304.102 101.31,303.767 101.31,301.32 135.854,301.653 							"/>
						</g>
					</g>
					<g>
						<polygon style="fill:#C0A4FC;" points="241.665,297.464 240.463,295.416 244.206,292.677 240.654,290.077 241.856,288.029 
							248.208,292.677 						"/>
					</g>
				</g>
				<g>
					<polygon style="fill:#C0A4FC;" points="238.822,243.806 232.279,239.019 238.632,234.372 239.834,236.42 236.282,239.019 
						240.024,241.758 					"/>
				</g>
				<g>
					<polygon style="fill:#C0A4FC;" points="74.545,243.062 73.343,241.014 77.086,238.275 73.534,235.676 74.736,233.628 
						81.088,238.275 					"/>
				</g>
			</g>
		</g>
	</g>
	<text transform="matrix(1 0 0 1 383.1846 202.3853)" style="fill:#7A5CE0; font-family:'Roboto-Medium'; font-size:42.0285px;">#ssl</text>
	<g>
		<g>
			<g>
				<path style="fill:#1D1D1B;" d="M277.406,409.527H77.497c-3.9,0-4.783-1.948-1.972-4.35l96.066-77.53l203.658-3.06l0,0
					c0,1.948-0.824,3.805-2.269,5.113l-83.423,75.477C286.746,407.58,281.306,409.527,277.406,409.527z"/>
				<path style="fill:#FFFFFF;" d="M277.406,406.468H77.497c-3.9,0-4.783-1.947-1.972-4.35l96.066-77.53h203.658l-85.692,77.53
					C286.746,404.52,281.306,406.468,277.406,406.468z"/>
				<path style="fill:#E5DBFF;" d="M295.902,379.639H122.388c-2.746,0-3.368-1.371-1.388-3.063l46.757-39.961
					c1.979-1.691,5.81-3.063,8.556-3.063h173.514c2.746,0,3.368,1.371,1.389,3.063l-46.757,39.961
					C302.478,378.268,298.648,379.639,295.902,379.639z"/>
				<g>
					<g>
						<path d="M184.035,336.927h-9.045c-0.861,0-1.056-0.43-0.435-0.961l5.767-4.929c0.621-0.53,1.822-0.96,2.683-0.96h9.045
							c0.861,0,1.056,0.43,0.435,0.96l-5.767,4.929C186.097,336.497,184.896,336.927,184.035,336.927z"/>
						<path d="M196.739,336.927h-8.001c-0.861,0-1.056-0.43-0.436-0.961l5.767-4.929c0.621-0.53,1.822-0.96,2.683-0.96h8.001
							c0.861,0,1.056,0.43,0.435,0.96l-5.767,4.929C198.801,336.497,197.6,336.927,196.739,336.927z"/>
						<path d="M209.443,336.927h-8.001c-0.861,0-1.056-0.43-0.435-0.961l5.767-4.929c0.621-0.53,1.822-0.96,2.683-0.96h8.001
							c0.861,0,1.056,0.43,0.435,0.96l-5.767,4.929C211.505,336.497,210.304,336.927,209.443,336.927z"/>
						<path d="M222.147,336.927h-8.001c-0.861,0-1.056-0.43-0.436-0.961l5.767-4.929c0.621-0.53,1.822-0.96,2.683-0.96h8.001
							c0.861,0,1.056,0.43,0.435,0.96l-5.767,4.929C224.21,336.497,223.008,336.927,222.147,336.927z"/>
						<path d="M234.851,336.927h-8.001c-0.861,0-1.056-0.43-0.435-0.961l5.767-4.929c0.62-0.53,1.822-0.96,2.683-0.96h8.001
							c0.861,0,1.056,0.43,0.435,0.96l-5.767,4.929C236.914,336.497,235.713,336.927,234.851,336.927z"/>
						<path d="M247.556,336.927h-8.001c-0.861,0-1.056-0.43-0.435-0.961l5.767-4.929c0.621-0.53,1.822-0.96,2.683-0.96h8.001
							c0.861,0,1.056,0.43,0.435,0.96l-5.767,4.929C249.618,336.497,248.417,336.927,247.556,336.927z"/>
						<path d="M260.26,336.927h-8.001c-0.861,0-1.056-0.43-0.435-0.961l5.767-4.929c0.621-0.53,1.822-0.96,2.683-0.96h8.001
							c0.861,0,1.056,0.43,0.435,0.96l-5.767,4.929C262.322,336.497,261.121,336.927,260.26,336.927z"/>
						<path d="M272.964,336.927h-8.001c-0.861,0-1.056-0.43-0.435-0.961l5.767-4.929c0.621-0.53,1.822-0.96,2.683-0.96h8.001
							c0.861,0,1.056,0.43,0.435,0.96l-5.767,4.929C275.026,336.497,273.825,336.927,272.964,336.927z"/>
						<path d="M285.668,336.927h-8.001c-0.861,0-1.056-0.43-0.435-0.961l5.767-4.929c0.621-0.53,1.822-0.96,2.683-0.96h8.001
							c0.861,0,1.056,0.43,0.435,0.96l-5.767,4.929C287.731,336.497,286.529,336.927,285.668,336.927z"/>
						<path d="M298.372,336.927h-8.001c-0.861,0-1.056-0.43-0.435-0.961l5.767-4.929c0.621-0.53,1.822-0.96,2.683-0.96h8.001
							c0.861,0,1.056,0.43,0.435,0.96l-5.767,4.929C300.435,336.497,299.234,336.927,298.372,336.927z"/>
						<path d="M311.077,336.927h-8.001c-0.861,0-1.056-0.43-0.435-0.961l5.767-4.929c0.621-0.53,1.822-0.96,2.683-0.96h8.001
							c0.861,0,1.056,0.43,0.435,0.96l-5.767,4.929C313.139,336.497,311.938,336.927,311.077,336.927z"/>
						<path d="M323.781,336.927h-8.001c-0.861,0-1.056-0.43-0.435-0.961l5.767-4.929c0.621-0.53,1.822-0.96,2.683-0.96h8.001
							c0.861,0,1.056,0.43,0.435,0.96l-5.767,4.929C325.843,336.497,324.642,336.927,323.781,336.927z"/>
						<path d="M342.649,336.927h-14.706c-0.861,0-1.056-0.43-0.436-0.961l5.767-4.929c0.621-0.53,1.822-0.96,2.683-0.96h14.706
							c0.861,0,1.056,0.43,0.436,0.96l-5.767,4.929C344.711,336.497,343.51,336.927,342.649,336.927z"/>
					</g>
					<g>
						<path d="M181.219,344.762h-15.397c-0.861,0-1.056-0.43-0.436-0.96l5.767-4.929c0.621-0.53,1.822-0.961,2.683-0.961h15.397
							c0.861,0,1.056,0.43,0.435,0.961l-5.767,4.929C183.281,344.332,182.08,344.762,181.219,344.762z"/>
						<path d="M193.923,344.762h-8.001c-0.861,0-1.056-0.43-0.435-0.96l5.767-4.929c0.621-0.53,1.822-0.961,2.683-0.961h8.001
							c0.861,0,1.056,0.43,0.435,0.961l-5.767,4.929C195.985,344.332,194.784,344.762,193.923,344.762z"/>
						<path d="M206.627,344.762h-8.001c-0.861,0-1.056-0.43-0.435-0.96l5.767-4.929c0.621-0.53,1.822-0.961,2.683-0.961h8.001
							c0.861,0,1.056,0.43,0.435,0.961l-5.767,4.929C208.689,344.332,207.488,344.762,206.627,344.762z"/>
						<path d="M219.331,344.762h-8.001c-0.861,0-1.056-0.43-0.435-0.96l5.767-4.929c0.621-0.53,1.822-0.961,2.683-0.961h8.001
							c0.861,0,1.056,0.43,0.435,0.961l-5.767,4.929C221.394,344.332,220.192,344.762,219.331,344.762z"/>
						<path d="M232.036,344.762h-8.001c-0.861,0-1.056-0.43-0.435-0.96l5.767-4.929c0.621-0.53,1.822-0.961,2.683-0.961h8.001
							c0.861,0,1.056,0.43,0.435,0.961l-5.767,4.929C234.098,344.332,232.897,344.762,232.036,344.762z"/>
						<path d="M244.74,344.762h-8.001c-0.861,0-1.056-0.43-0.436-0.96l5.767-4.929c0.62-0.53,1.822-0.961,2.683-0.961h8.001
							c0.861,0,1.056,0.43,0.436,0.961l-5.767,4.929C246.802,344.332,245.601,344.762,244.74,344.762z"/>
						<path d="M257.444,344.762h-8.001c-0.861,0-1.056-0.43-0.435-0.96l5.767-4.929c0.621-0.53,1.822-0.961,2.683-0.961h8.001
							c0.861,0,1.056,0.43,0.435,0.961l-5.767,4.929C259.506,344.332,258.305,344.762,257.444,344.762z"/>
						<path d="M270.148,344.762h-8.001c-0.861,0-1.056-0.43-0.436-0.96l5.767-4.929c0.621-0.53,1.822-0.961,2.683-0.961h8.001
							c0.861,0,1.056,0.43,0.435,0.961l-5.767,4.929C272.21,344.332,271.009,344.762,270.148,344.762z"/>
						<path d="M282.852,344.762h-8.001c-0.861,0-1.056-0.43-0.435-0.96l5.767-4.929c0.621-0.53,1.822-0.961,2.683-0.961h8.001
							c0.861,0,1.056,0.43,0.435,0.961l-5.767,4.929C284.915,344.332,283.714,344.762,282.852,344.762z"/>
						<path d="M295.557,344.762h-8.001c-0.861,0-1.056-0.43-0.435-0.96l5.767-4.929c0.621-0.53,1.822-0.961,2.683-0.961h8.001
							c0.861,0,1.056,0.43,0.435,0.961l-5.767,4.929C297.619,344.332,296.418,344.762,295.557,344.762z"/>
						<path d="M308.261,344.762h-8.001c-0.861,0-1.056-0.43-0.436-0.96l5.767-4.929c0.621-0.53,1.822-0.961,2.683-0.961h8.001
							c0.861,0,1.056,0.43,0.436,0.961l-5.767,4.929C310.323,344.332,309.122,344.762,308.261,344.762z"/>
						<path d="M320.965,344.762h-8.001c-0.861,0-1.056-0.43-0.435-0.96l5.767-4.929c0.621-0.53,1.822-0.961,2.683-0.961h8.001
							c0.861,0,1.056,0.43,0.435,0.961l-5.767,4.929C323.027,344.332,321.826,344.762,320.965,344.762z"/>
					</g>
					<g>
						<path d="M162.883,360.433h-15.397c-0.861,0-1.056-0.43-0.435-0.961l5.767-4.929c0.621-0.531,1.822-0.961,2.683-0.961h15.397
							c0.861,0,1.056,0.43,0.436,0.961l-5.767,4.929C164.945,360.003,163.744,360.433,162.883,360.433z"/>
						<path d="M175.587,360.433h-8.001c-0.861,0-1.056-0.43-0.435-0.961l5.767-4.929c0.621-0.531,1.822-0.961,2.683-0.961h8.001
							c0.861,0,1.056,0.43,0.435,0.961l-5.767,4.929C177.649,360.003,176.448,360.433,175.587,360.433z"/>
						<path d="M188.291,360.433h-8.001c-0.861,0-1.056-0.43-0.435-0.961l5.767-4.929c0.621-0.531,1.822-0.961,2.683-0.961h8.001
							c0.861,0,1.056,0.43,0.435,0.961l-5.767,4.929C190.354,360.003,189.152,360.433,188.291,360.433z"/>
						<path d="M200.995,360.433h-8.001c-0.861,0-1.056-0.43-0.435-0.961l5.767-4.929c0.621-0.531,1.822-0.961,2.683-0.961h8.001
							c0.861,0,1.056,0.43,0.436,0.961l-5.767,4.929C203.058,360.003,201.856,360.433,200.995,360.433z"/>
						<path d="M213.699,360.433h-8.001c-0.861,0-1.056-0.43-0.436-0.961l5.767-4.929c0.621-0.531,1.822-0.961,2.683-0.961h8.001
							c0.861,0,1.056,0.43,0.435,0.961l-5.767,4.929C215.762,360.003,214.561,360.433,213.699,360.433z"/>
						<path d="M226.404,360.433h-8.001c-0.861,0-1.056-0.43-0.435-0.961l5.767-4.929c0.621-0.531,1.822-0.961,2.683-0.961h8.001
							c0.861,0,1.056,0.43,0.435,0.961l-5.767,4.929C228.466,360.003,227.265,360.433,226.404,360.433z"/>
						<path d="M239.108,360.433h-8.001c-0.861,0-1.056-0.43-0.435-0.961l5.767-4.929c0.621-0.531,1.822-0.961,2.683-0.961h8.001
							c0.861,0,1.056,0.43,0.435,0.961l-5.767,4.929C241.17,360.003,239.969,360.433,239.108,360.433z"/>
						<path d="M251.812,360.433h-8.001c-0.861,0-1.056-0.43-0.435-0.961l5.767-4.929c0.621-0.531,1.822-0.961,2.683-0.961h8.001
							c0.861,0,1.056,0.43,0.435,0.961l-5.767,4.929C253.875,360.003,252.673,360.433,251.812,360.433z"/>
						<path d="M264.516,360.433h-8.001c-0.861,0-1.056-0.43-0.435-0.961l5.767-4.929c0.621-0.531,1.822-0.961,2.683-0.961h8.001
							c0.861,0,1.056,0.43,0.435,0.961l-5.767,4.929C266.579,360.003,265.378,360.433,264.516,360.433z"/>
						<path d="M277.221,360.433h-8.001c-0.861,0-1.056-0.43-0.436-0.961l5.767-4.929c0.621-0.531,1.822-0.961,2.683-0.961h8.001
							c0.861,0,1.056,0.43,0.436,0.961l-5.767,4.929C279.283,360.003,278.082,360.433,277.221,360.433z"/>
						<path d="M289.925,360.433h-8.001c-0.861,0-1.056-0.43-0.435-0.961l5.767-4.929c0.621-0.531,1.822-0.961,2.683-0.961h8.001
							c0.861,0,1.056,0.43,0.435,0.961l-5.767,4.929C291.987,360.003,290.786,360.433,289.925,360.433z"/>
						<path d="M302.629,360.433h-8.001c-0.861,0-1.056-0.43-0.435-0.961l5.767-4.929c0.621-0.531,1.822-0.961,2.683-0.961h8.001
							c0.861,0,1.056,0.43,0.435,0.961l-5.767,4.929C304.691,360.003,303.49,360.433,302.629,360.433z"/>
						<path d="M315.145,360.433h-8.001c-0.861,0-1.056-0.43-0.435-0.961l10.928-9.339c0.621-0.53,1.822-0.961,2.683-0.961h8.001
							c0.861,0,1.056,0.43,0.435,0.961l-10.928,9.339C317.207,360.003,316.006,360.433,315.145,360.433z"/>
						<path d="M333.481,344.762h-8.001c-0.861,0-1.056-0.43-0.436-0.96l5.767-4.929c0.62-0.53,1.822-0.961,2.683-0.961h8.001
							c0.861,0,1.056,0.43,0.436,0.961l-5.767,4.929C335.543,344.332,334.342,344.762,333.481,344.762z"/>
					</g>
					<g>
						<path d="M164.655,352.598h-8.001c-0.861,0-1.056-0.43-0.436-0.961l5.767-4.929c0.62-0.53,1.822-0.96,2.683-0.96h8.001
							c0.861,0,1.056,0.43,0.436,0.96l-5.767,4.929C166.717,352.168,165.516,352.598,164.655,352.598z"/>
						<path d="M177.359,352.598h-8.001c-0.861,0-1.056-0.43-0.435-0.961l5.767-4.929c0.621-0.53,1.822-0.96,2.683-0.96h8.001
							c0.861,0,1.056,0.43,0.435,0.96l-5.767,4.929C179.421,352.168,178.22,352.598,177.359,352.598z"/>
						<path d="M190.063,352.598h-8.001c-0.861,0-1.056-0.43-0.435-0.961l5.767-4.929c0.621-0.53,1.822-0.96,2.683-0.96h8.001
							c0.861,0,1.056,0.43,0.435,0.96l-5.767,4.929C192.125,352.168,190.924,352.598,190.063,352.598z"/>
						<path d="M202.767,352.598h-8.001c-0.861,0-1.056-0.43-0.435-0.961l5.767-4.929c0.621-0.53,1.822-0.96,2.683-0.96h8.001
							c0.861,0,1.056,0.43,0.435,0.96l-5.767,4.929C204.83,352.168,203.629,352.598,202.767,352.598z"/>
						<path d="M215.472,352.598h-8.001c-0.861,0-1.056-0.43-0.435-0.961l5.767-4.929c0.621-0.53,1.822-0.96,2.683-0.96h8.001
							c0.861,0,1.056,0.43,0.435,0.96l-5.767,4.929C217.534,352.168,216.333,352.598,215.472,352.598z"/>
						<path d="M228.176,352.598h-8.001c-0.861,0-1.056-0.43-0.436-0.961l5.767-4.929c0.621-0.53,1.822-0.96,2.683-0.96h8.001
							c0.861,0,1.056,0.43,0.436,0.96l-5.767,4.929C230.238,352.168,229.037,352.598,228.176,352.598z"/>
						<path d="M240.88,352.598h-8.001c-0.861,0-1.056-0.43-0.435-0.961l5.767-4.929c0.621-0.53,1.822-0.96,2.683-0.96h8.001
							c0.861,0,1.056,0.43,0.435,0.96l-5.767,4.929C242.942,352.168,241.741,352.598,240.88,352.598z"/>
						<path d="M253.584,352.598h-8.001c-0.861,0-1.056-0.43-0.435-0.961l5.767-4.929c0.621-0.53,1.822-0.96,2.683-0.96h8.001
							c0.861,0,1.056,0.43,0.435,0.96l-5.767,4.929C255.647,352.168,254.445,352.598,253.584,352.598z"/>
						<path d="M266.288,352.598h-8.001c-0.861,0-1.056-0.43-0.435-0.961l5.767-4.929c0.621-0.53,1.822-0.96,2.683-0.96h8.001
							c0.861,0,1.056,0.43,0.435,0.96l-5.767,4.929C268.351,352.168,267.149,352.598,266.288,352.598z"/>
						<path d="M278.993,352.598h-8.001c-0.861,0-1.056-0.43-0.435-0.961l5.767-4.929c0.621-0.53,1.822-0.96,2.683-0.96h8.001
							c0.861,0,1.056,0.43,0.435,0.96l-5.767,4.929C281.055,352.168,279.854,352.598,278.993,352.598z"/>
						<path d="M291.697,352.598h-8.001c-0.861,0-1.056-0.43-0.436-0.961l5.767-4.929c0.621-0.53,1.822-0.96,2.683-0.96h8.001
							c0.861,0,1.056,0.43,0.435,0.96l-5.767,4.929C293.759,352.168,292.558,352.598,291.697,352.598z"/>
						<path d="M304.401,352.598H296.4c-0.861,0-1.056-0.43-0.435-0.961l5.767-4.929c0.62-0.53,1.822-0.96,2.683-0.96h8.001
							c0.861,0,1.056,0.43,0.435,0.96l-5.767,4.929C306.463,352.168,305.262,352.598,304.401,352.598z"/>
						<path d="M324.313,352.598h-14.957c-0.861,0-1.056-0.43-0.435-0.961l5.767-4.929c0.621-0.53,1.822-0.96,2.683-0.96h14.957
							c0.861,0,1.056,0.43,0.435,0.96l-5.767,4.929C326.375,352.168,325.174,352.598,324.313,352.598z"/>
					</g>
					<g>
						<path d="M148.947,368.268h-10.63c-0.861,0-1.056-0.43-0.435-0.96l5.767-4.929c0.621-0.531,1.822-0.961,2.683-0.961h10.63
							c0.861,0,1.056,0.43,0.436,0.961l-5.767,4.929C151.01,367.838,149.808,368.268,148.947,368.268z"/>
						<path d="M159.023,368.268h-5.144c-0.861,0-1.056-0.43-0.435-0.96l5.767-4.929c0.62-0.531,1.822-0.961,2.683-0.961h5.144
							c0.861,0,1.056,0.43,0.435,0.961l-5.767,4.929C161.085,367.838,159.884,368.268,159.023,368.268z"/>
						<path d="M171.727,368.268h-8.001c-0.861,0-1.056-0.43-0.436-0.96l5.767-4.929c0.621-0.531,1.822-0.961,2.683-0.961h8.001
							c0.861,0,1.056,0.43,0.435,0.961l-5.767,4.929C173.79,367.838,172.588,368.268,171.727,368.268z"/>
						<path d="M184.431,368.268h-8.001c-0.861,0-1.056-0.43-0.435-0.96l5.767-4.929c0.621-0.531,1.822-0.961,2.683-0.961h8.001
							c0.861,0,1.056,0.43,0.435,0.961l-5.767,4.929C186.494,367.838,185.293,368.268,184.431,368.268z"/>
						<path d="M197.136,368.268h-8.001c-0.861,0-1.056-0.43-0.436-0.96l5.767-4.929c0.62-0.531,1.822-0.961,2.683-0.961h8.001
							c0.861,0,1.056,0.43,0.436,0.961l-5.767,4.929C199.198,367.838,197.997,368.268,197.136,368.268z"/>
						<path d="M209.84,368.268h-8.001c-0.861,0-1.056-0.43-0.435-0.96l5.767-4.929c0.62-0.531,1.822-0.961,2.683-0.961h8.001
							c0.861,0,1.056,0.43,0.435,0.961l-5.767,4.929C211.902,367.838,210.701,368.268,209.84,368.268z"/>
						<path d="M222.544,368.268h-8.001c-0.861,0-1.056-0.43-0.436-0.96l5.767-4.929c0.621-0.531,1.822-0.961,2.683-0.961h8.001
							c0.861,0,1.056,0.43,0.435,0.961l-5.767,4.929C224.606,367.838,223.405,368.268,222.544,368.268z"/>
						<path d="M235.248,368.268h-8.001c-0.861,0-1.056-0.43-0.435-0.96l5.767-4.929c0.621-0.531,1.822-0.961,2.683-0.961h8.001
							c0.861,0,1.056,0.43,0.435,0.961l-5.767,4.929C237.311,367.838,236.109,368.268,235.248,368.268z"/>
						<path d="M247.953,368.268h-8.001c-0.861,0-1.056-0.43-0.435-0.96l5.767-4.929c0.621-0.531,1.822-0.961,2.683-0.961h8.001
							c0.861,0,1.056,0.43,0.435,0.961l-5.767,4.929C250.015,367.838,248.814,368.268,247.953,368.268z"/>
						<path d="M260.657,368.268h-8.001c-0.861,0-1.056-0.43-0.436-0.96l5.767-4.929c0.621-0.531,1.822-0.961,2.683-0.961h8.001
							c0.861,0,1.056,0.43,0.436,0.961l-5.767,4.929C262.719,367.838,261.518,368.268,260.657,368.268z"/>
						<path d="M273.361,368.268h-8.001c-0.861,0-1.056-0.43-0.436-0.96l5.767-4.929c0.621-0.531,1.822-0.961,2.683-0.961h8.001
							c0.861,0,1.056,0.43,0.435,0.961l-5.767,4.929C275.423,367.838,274.222,368.268,273.361,368.268z"/>
						<path d="M305.977,368.268h-27.913c-0.861,0-1.056-0.43-0.435-0.96l5.767-4.929c0.621-0.531,1.822-0.961,2.683-0.961h27.913
							c0.861,0,1.056,0.43,0.435,0.961l-5.767,4.929C308.039,367.838,306.838,368.268,305.977,368.268z"/>
					</g>
					<g>
						<path d="M137.151,376.104h-8.001c-0.861,0-1.056-0.43-0.435-0.961l5.767-4.929c0.621-0.53,1.822-0.96,2.683-0.96h8.001
							c0.861,0,1.056,0.43,0.435,0.96l-5.767,4.929C139.213,375.674,138.012,376.104,137.151,376.104z"/>
						<path d="M149.855,376.104h-8.001c-0.861,0-1.056-0.43-0.436-0.961l5.767-4.929c0.621-0.53,1.822-0.96,2.683-0.96h8.001
							c0.861,0,1.056,0.43,0.435,0.96l-5.767,4.929C151.917,375.674,150.716,376.104,149.855,376.104z"/>
						<path d="M162.559,376.104h-8.001c-0.861,0-1.056-0.43-0.435-0.961l5.767-4.929c0.621-0.53,1.822-0.96,2.683-0.96h8.001
							c0.861,0,1.056,0.43,0.435,0.96l-5.767,4.929C164.622,375.674,163.42,376.104,162.559,376.104z"/>
						<path d="M175.264,376.104h-8.001c-0.861,0-1.056-0.43-0.436-0.961l5.767-4.929c0.621-0.53,1.822-0.96,2.683-0.96h8.001
							c0.861,0,1.056,0.43,0.435,0.96l-5.767,4.929C177.326,375.674,176.125,376.104,175.264,376.104z"/>
						<path d="M276.795,376.104h-8.001c-0.861,0-1.056-0.43-0.435-0.961l5.767-4.929c0.621-0.53,1.822-0.96,2.683-0.96h8.001
							c0.861,0,1.056,0.43,0.435,0.96l-5.767,4.929C278.858,375.674,277.656,376.104,276.795,376.104z"/>
						<path d="M238.785,376.104h-58.818c-0.861,0-1.056-0.43-0.435-0.961l5.767-4.929c0.62-0.53,1.822-0.96,2.683-0.96h58.818
							c0.861,0,1.056,0.43,0.436,0.96l-5.767,4.929C240.847,375.674,239.646,376.104,238.785,376.104z"/>
						<path d="M251.489,376.104h-8.001c-0.861,0-1.056-0.43-0.436-0.961l5.767-4.929c0.621-0.53,1.822-0.96,2.683-0.96h8.001
							c0.861,0,1.056,0.43,0.435,0.96l-5.767,4.929C253.551,375.674,252.35,376.104,251.489,376.104z"/>
						<path d="M268.845,372.215h-8.001c-0.861,0-1.056-0.43-0.435-0.961l1.217-1.04c0.621-0.53,1.822-0.96,2.683-0.96h8.001
							c0.861,0,1.056,0.43,0.435,0.96l-1.217,1.04C270.907,371.785,269.706,372.215,268.845,372.215z"/>
						<path d="M264.209,376.177h-8.001c-0.861,0-1.056-0.43-0.435-0.96l1.76-1.504c0.62-0.53,1.822-0.961,2.683-0.961h8.001
							c0.861,0,1.056,0.43,0.435,0.961l-1.759,1.504C266.271,375.747,265.07,376.177,264.209,376.177z"/>
						<path d="M296.809,376.104h-14.957c-0.861,0-1.056-0.43-0.435-0.961l5.767-4.929c0.621-0.53,1.822-0.96,2.683-0.96h14.957
							c0.861,0,1.056,0.43,0.435,0.96l-5.767,4.929C298.872,375.674,297.67,376.104,296.809,376.104z"/>
					</g>
				</g>
				<path style="fill:#E5DBFF;" d="M211.719,401.367h-59.41c-2.105,0-2.582-1.051-1.064-2.348l16.343-13.968
					c1.518-1.297,4.455-2.348,6.56-2.348h59.41c2.106,0,2.582,1.051,1.065,2.348l-16.343,13.968
					C216.761,400.316,213.824,401.367,211.719,401.367z"/>
			</g>
			<path d="M374.987,324.588H171.764V192.141c0-4.196,3.402-7.598,7.598-7.598h188.028c4.196,0,7.598,3.402,7.598,7.598V324.588z"/>
			<rect x="178.642" y="194.46" style="fill:#7A5CE0;" width="189.467" height="125.57"/>
		</g>
	</g>
	<g>
		<g>
			<g>
				<path d="M399.118,84.007h-84.683c-0.634,0-1.147-0.514-1.147-1.147V71.041c0-0.634,0.514-1.147,1.147-1.147h84.665
					c0.641,0,1.166,0.524,1.166,1.166v11.8C400.265,83.493,399.751,84.007,399.118,84.007z"/>
				<rect x="313.287" y="76.711" style="fill:#7A5CE0;" width="86.978" height="53.475"/>
				<g>
					
						<line style="fill:none;stroke:#1C1C1B;stroke-linecap:round;stroke-linejoin:round;stroke-miterlimit:10;" x1="331.608" y1="84.678" x2="381.076" y2="84.678"/>
					
						<line style="fill:none;stroke:#1C1C1B;stroke-linecap:round;stroke-linejoin:round;stroke-miterlimit:10;" x1="331.608" y1="92.2" x2="381.076" y2="92.2"/>
					
						<line style="fill:none;stroke:#1C1C1B;stroke-linecap:round;stroke-linejoin:round;stroke-miterlimit:10;" x1="331.608" y1="99.721" x2="381.076" y2="99.721"/>
					
						<line style="fill:none;stroke:#1C1C1B;stroke-linecap:round;stroke-linejoin:round;stroke-miterlimit:10;" x1="331.608" y1="107.243" x2="381.076" y2="107.243"/>
				</g>
				<polyline style="fill:none;stroke:#1C1C1B;stroke-linecap:round;stroke-linejoin:round;stroke-miterlimit:10;" points="
					321.303,81.489 325.748,84.719 321.303,88.053 				"/>
			</g>
		</g>
		<g>
			<g>
				<path d="M374.543,109.85H289.86c-0.634,0-1.147-0.514-1.147-1.147V96.884c0-0.634,0.514-1.147,1.147-1.147h84.665
					c0.641,0,1.166,0.524,1.166,1.166v11.8C375.69,109.336,375.177,109.85,374.543,109.85z"/>
				<rect x="288.713" y="102.554" style="fill:#FF9C40;" width="86.978" height="53.475"/>
				<g>
					
						<line style="fill:none;stroke:#1C1C1B;stroke-linecap:round;stroke-linejoin:round;stroke-miterlimit:10;" x1="307.033" y1="110.521" x2="356.501" y2="110.521"/>
					
						<line style="fill:none;stroke:#1C1C1B;stroke-linecap:round;stroke-linejoin:round;stroke-miterlimit:10;" x1="307.033" y1="118.043" x2="356.501" y2="118.043"/>
					
						<line style="fill:none;stroke:#1C1C1B;stroke-linecap:round;stroke-linejoin:round;stroke-miterlimit:10;" x1="307.033" y1="125.564" x2="356.501" y2="125.564"/>
					
						<line style="fill:none;stroke:#1C1C1B;stroke-linecap:round;stroke-linejoin:round;stroke-miterlimit:10;" x1="307.033" y1="133.086" x2="356.501" y2="133.086"/>
				</g>
				<polyline style="fill:none;stroke:#1C1C1B;stroke-linecap:round;stroke-linejoin:round;stroke-miterlimit:10;" points="
					296.729,107.332 301.174,110.562 296.729,113.896 				"/>
			</g>
		</g>
	</g>
	<g>
		<g>
			<g>
				<g>
					<path style="fill:#7A5CE0;" d="M221.761,133.832c-0.099-1.998,1.441-3.699,3.439-3.798c1.999-0.099,3.699,1.44,3.798,3.438
						c0.006,0.126-0.012,0.246-0.019,0.369c1.401-0.307,2.75-0.745,4.033-1.303c-0.085-0.104-0.177-0.199-0.251-0.314
						c-1.085-1.681-0.602-3.924,1.079-5.009c1.681-1.085,3.924-0.602,5.008,1.079c0.073,0.113,0.121,0.233,0.18,0.351
						c1.051-0.958,2.008-2.015,2.857-3.157c-0.135-0.05-0.271-0.09-0.402-0.157c-1.78-0.913-2.483-3.097-1.57-4.877
						c0.913-1.781,3.097-2.483,4.877-1.57c0.133,0.068,0.248,0.157,0.368,0.238c0.434-1.348,0.739-2.751,0.904-4.193
						c-0.156,0.029-0.31,0.063-0.473,0.072c-1.998,0.099-3.699-1.441-3.798-3.439c-0.099-1.998,1.441-3.699,3.439-3.798
						c0.167-0.008,0.327,0.011,0.489,0.025c-0.306-1.433-0.751-2.811-1.32-4.122c-0.133,0.117-0.265,0.235-0.418,0.334
						c-1.681,1.085-3.924,0.602-5.009-1.079c-1.085-1.681-0.602-3.924,1.079-5.009c0.154-0.099,0.317-0.171,0.479-0.245
						c-0.978-1.079-2.061-2.059-3.232-2.925c-0.059,0.181-0.121,0.362-0.21,0.536c-0.913,1.78-3.097,2.484-4.877,1.57
						c-1.78-0.913-2.483-3.097-1.57-4.877c0.089-0.174,0.2-0.328,0.311-0.481c-1.377-0.441-2.81-0.75-4.284-0.911
						c0.042,0.193,0.079,0.388,0.09,0.592c0.099,1.998-1.441,3.699-3.439,3.798c-1.998,0.099-3.699-1.44-3.798-3.439
						c-0.009-0.195,0.009-0.384,0.029-0.573c-1.448,0.316-2.84,0.774-4.162,1.358c0.131,0.145,0.26,0.294,0.37,0.464
						c1.085,1.681,0.602,3.924-1.079,5.009c-1.681,1.085-3.924,0.602-5.009-1.079c-0.102-0.158-0.177-0.325-0.251-0.492
						c-1.073,0.985-2.044,2.075-2.903,3.251c0.175,0.058,0.351,0.117,0.52,0.204c1.781,0.913,2.483,3.097,1.57,4.877
						c-0.913,1.78-3.097,2.483-4.877,1.57c-0.156-0.08-0.293-0.181-0.432-0.279c-0.427,1.363-0.724,2.782-0.877,4.24
						c0.167-0.032,0.334-0.068,0.509-0.077c1.999-0.099,3.699,1.44,3.798,3.439c0.099,1.998-1.44,3.699-3.439,3.798
						c-0.154,0.008-0.302-0.011-0.452-0.023c0.317,1.417,0.769,2.778,1.342,4.073c0.117-0.099,0.228-0.202,0.36-0.287
						c1.681-1.085,3.924-0.602,5.009,1.079c1.085,1.681,0.602,3.924-1.079,5.009c-0.116,0.075-0.24,0.124-0.361,0.185
						c0.964,1.045,2.027,1.994,3.173,2.835c0.048-0.129,0.087-0.26,0.151-0.386c0.913-1.78,3.097-2.483,4.877-1.57
						c1.78,0.913,2.483,3.097,1.57,4.877c-0.059,0.116-0.138,0.214-0.207,0.32c1.335,0.42,2.723,0.713,4.15,0.87
						C221.799,134.092,221.767,133.966,221.761,133.832z M209.495,113.133c-0.404-8.144,5.87-15.074,14.014-15.478
						c8.144-0.404,15.074,5.87,15.478,14.014c0.405,8.144-5.87,15.074-14.014,15.478C216.83,127.551,209.9,121.277,209.495,113.133z
						"/>
				</g>
			</g>
			
				<ellipse transform="matrix(0.9227 -0.3856 0.3856 0.9227 -26.0007 95.1672)" style="fill:none;stroke:#000000;stroke-linecap:round;stroke-linejoin:round;stroke-miterlimit:10;" cx="224.241" cy="112.4" rx="12.547" ry="12.547"/>
		</g>
		<path style="fill:#7A5CE0;" d="M151.975,114.578c-0.176,0.009-0.346-0.013-0.518-0.026c0.363,1.621,0.88,3.18,1.536,4.662
			c0.134-0.113,0.261-0.231,0.412-0.329c1.924-1.242,4.491-0.689,5.733,1.235c1.242,1.924,0.689,4.491-1.235,5.733
			c-0.133,0.086-0.275,0.143-0.413,0.211c1.103,1.196,2.32,2.283,3.632,3.245c0.056-0.148,0.099-0.298,0.173-0.441
			c1.045-2.038,3.545-2.842,5.582-1.797c2.038,1.046,2.842,3.545,1.797,5.583c-0.068,0.132-0.157,0.244-0.237,0.366
			c1.528,0.48,3.117,0.816,4.75,0.996c-0.024-0.149-0.06-0.293-0.067-0.447c-0.114-2.287,1.649-4.234,3.936-4.347
			c2.287-0.114,4.234,1.649,4.347,3.936c0.007,0.144-0.014,0.282-0.021,0.422c1.604-0.351,3.147-0.853,4.616-1.492
			c-0.097-0.119-0.202-0.228-0.287-0.36c-1.242-1.924-0.689-4.491,1.235-5.733c1.924-1.242,4.491-0.689,5.733,1.235
			c0.083,0.129,0.138,0.267,0.205,0.401c1.204-1.096,2.299-2.306,3.27-3.613c-0.154-0.057-0.31-0.103-0.46-0.18
			c-2.038-1.045-2.842-3.545-1.797-5.583c1.046-2.038,3.545-2.842,5.583-1.797c0.152,0.078,0.283,0.179,0.422,0.273
			c0.496-1.543,0.846-3.149,1.035-4.8c-0.179,0.033-0.355,0.073-0.542,0.082c-2.287,0.114-4.234-1.648-4.348-3.936
			c-0.114-2.287,1.649-4.234,3.936-4.347c0.191-0.01,0.374,0.013,0.56,0.028c-0.351-1.641-0.859-3.218-1.51-4.718
			c-0.152,0.134-0.304,0.269-0.479,0.383c-1.924,1.242-4.491,0.689-5.733-1.235c-1.242-1.924-0.689-4.491,1.235-5.733
			c0.176-0.114,0.363-0.196,0.548-0.281c-1.12-1.235-2.359-2.357-3.7-3.349c-0.067,0.207-0.138,0.414-0.241,0.614
			c-1.045,2.038-3.545,2.842-5.583,1.797c-2.038-1.045-2.842-3.545-1.797-5.583c0.102-0.199,0.228-0.375,0.356-0.55
			c-1.576-0.505-3.216-0.859-4.904-1.043c0.048,0.221,0.091,0.445,0.103,0.678c0.114,2.287-1.649,4.234-3.936,4.347
			c-2.288,0.114-4.234-1.649-4.348-3.936c-0.011-0.224,0.01-0.44,0.033-0.656c-1.658,0.362-3.251,0.886-4.765,1.554
			c0.151,0.166,0.298,0.337,0.424,0.531c1.242,1.924,0.689,4.491-1.235,5.733c-1.924,1.242-4.491,0.689-5.733-1.235
			c-0.117-0.181-0.202-0.372-0.288-0.563c-1.228,1.127-2.34,2.375-3.323,3.721c0.201,0.067,0.401,0.134,0.595,0.233
			c2.038,1.045,2.842,3.545,1.797,5.583c-1.045,2.038-3.545,2.842-5.583,1.797c-0.179-0.092-0.335-0.207-0.494-0.32
			c-0.489,1.561-0.829,3.184-1.004,4.853c0.192-0.037,0.382-0.078,0.583-0.088c2.288-0.114,4.234,1.649,4.348,3.936
			C156.025,112.518,154.263,114.465,151.975,114.578z M172.356,96.656c6.828-1.996,14.007,1.937,16.003,8.765
			c1.996,6.828-1.936,14.007-8.764,16.003c-6.828,1.996-14.007-1.936-16.003-8.764C161.596,105.831,165.528,98.651,172.356,96.656z"
			/>
	</g>
	<g>
		<path style="fill:none;stroke:#1C1C1B;stroke-linecap:round;stroke-linejoin:round;stroke-miterlimit:10;stroke-dasharray:4;" d="
			M339.901,161.438v87.826c0,4.778-3.874,8.652-8.652,8.652h-20.492"/>
		<path style="fill:none;stroke:#1C1C1B;stroke-linecap:round;stroke-linejoin:round;stroke-miterlimit:10;stroke-dasharray:4;" d="
			M231.13,261.99H113.407c-4.778,0-8.652-3.874-8.652-8.652v-42.602"/>
		<path style="fill:none;stroke:#1C1C1B;stroke-linecap:round;stroke-linejoin:round;stroke-miterlimit:10;stroke-dasharray:4;" d="
			M314.041,279.577h87.826c4.778,0,8.652,3.874,8.652,8.652v56.323"/>
		<path style="fill:none;stroke:#1C1C1B;stroke-linecap:round;stroke-linejoin:round;stroke-miterlimit:10;stroke-dasharray:4;" d="
			M231.13,283.346h-90.84c-4.778,0-8.652,3.874-8.652,8.652v32.08"/>
		<path style="fill:none;stroke:#1C1C1B;stroke-linecap:round;stroke-linejoin:round;stroke-miterlimit:10;stroke-dasharray:4;" d="
			M199.283,128.939l0.403,93.844c0.02,4.778,3.911,8.635,8.689,8.615l30.614-0.144"/>
	</g>
	<g>
		<g>
			<g>
				<rect x="363.223" y="350.471" style="fill:#FF9C40;" width="6.923" height="5.608"/>
				<rect x="376.176" y="350.471" style="fill:#FF9C40;" width="18.09" height="5.608"/>
				<rect x="410.094" y="350.471" style="fill:#FF9C40;" width="22.612" height="5.608"/>
				<rect x="437.982" y="350.471" style="fill:#FF9C40;" width="15.828" height="5.608"/>
				<rect x="390.497" y="360.441" style="fill:#FF9C40;" width="10.552" height="5.608"/>
				<rect x="363.223" y="360.441" style="fill:#FF9C40;" width="20.49" height="5.608"/>
				<rect x="430.445" y="360.441" style="fill:#FF9C40;" width="18.09" height="5.608"/>
			</g>
			<path style="fill:none;stroke:#1C1C1B;stroke-linecap:round;stroke-linejoin:round;stroke-miterlimit:10;" d="M454.924,347.49
				L454.924,347.49c2.214,0,4.009,1.84,4.009,4.11v2.921c0,1.09,0.422,2.136,1.174,2.907l1.206,1.237l-0.83,0.851
				c-0.752,0.771-1.174,1.816-1.174,2.906v2.483c0,2.27-1.795,4.11-4.009,4.11h-0.661"/>
			<path style="fill:none;stroke:#1C1C1B;stroke-linecap:round;stroke-linejoin:round;stroke-miterlimit:10;" d="M362.666,347.49
				L362.666,347.49c-2.214,0-4.009,1.84-4.009,4.11v2.921c0,1.09-0.422,2.136-1.174,2.907l-1.206,1.237l0.83,0.851
				c0.752,0.771,1.174,1.816,1.174,2.906v2.483c0,2.27,1.795,4.11,4.009,4.11h0.661"/>
		</g>
		
			<line style="fill:none;stroke:#1C1C1B;stroke-linecap:round;stroke-linejoin:round;stroke-miterlimit:10;" x1="401.58" y1="350.22" x2="410.624" y2="366.3"/>
	</g>
	<g>
		<g>
			<rect x="40.418" y="190.807" style="fill:#FF9C40;" width="19.876" height="5.608"/>
			<rect x="65.784" y="190.807" style="fill:#FF9C40;" width="23.394" height="5.608"/>
			<rect x="93.197" y="190.807" style="fill:#FF9C40;" width="13.818" height="5.608"/>
			<rect x="127.59" y="190.807" style="fill:#FF9C40;" width="15.828" height="5.608"/>
			<rect x="43.172" y="200.777" style="fill:#FF9C40;" width="37.463" height="5.608"/>
			<rect x="85.911" y="200.777" style="fill:#FF9C40;" width="28.893" height="5.608"/>
			<rect x="133.145" y="200.777" style="fill:#FF9C40;" width="10.05" height="5.608"/>
			<path style="fill:none;stroke:#1C1C1B;stroke-linecap:round;stroke-linejoin:round;stroke-miterlimit:10;" d="M144.532,187.826
				L144.532,187.826c2.214,0,4.009,1.84,4.009,4.11v2.922c0,1.09,0.422,2.136,1.174,2.906l1.206,1.237l-0.83,0.851
				c-0.752,0.771-1.174,1.816-1.174,2.906v2.483c0,2.27-1.795,4.11-4.009,4.11h-0.661"/>
			<path style="fill:none;stroke:#1C1C1B;stroke-linecap:round;stroke-linejoin:round;stroke-miterlimit:10;" d="M37.722,187.826
				L37.722,187.826c-2.214,0-4.009,1.84-4.009,4.11v2.922c0,1.09-0.422,2.136-1.174,2.906l-1.206,1.237l0.83,0.851
				c0.752,0.771,1.174,1.816,1.174,2.906v2.483c0,2.27,1.795,4.11,4.009,4.11h0.661"/>
			
				<line style="fill:none;stroke:#1C1C1B;stroke-linecap:round;stroke-linejoin:round;stroke-miterlimit:10;" x1="116.41" y1="190.556" x2="125.454" y2="206.636"/>
		</g>
	</g>
	<g>
		<g>
			<path style="fill:#7A5CE0;" d="M70.14,340.374c0-4.014,3.52-7.268,7.862-7.268c0.648,0,1.276,0.074,1.878,0.21
				c-0.136-0.625-0.208-1.271-0.208-1.933c0-5.396,4.732-9.77,10.569-9.77c3.059,0,5.813,1.203,7.743,3.124
				c2.055-5.022,7.303-8.593,13.455-8.593c7.7,0,13.986,5.593,14.366,12.624c1.075-0.344,2.228-0.533,3.429-0.533
				c5.797,0,10.497,4.345,10.497,9.704c0,5.359-4.7,9.704-10.497,9.704c-0.001,0-0.003,0-0.004,0v0H77.49v-0.017
				C73.387,347.382,70.14,344.229,70.14,340.374z"/>
		</g>
		<path style="fill:none;stroke:#1D1D1B;stroke-linecap:round;stroke-linejoin:round;stroke-miterlimit:10;" d="M76.768,335.806
			c-1.715,0.344-3.206,1.524-3.838,3.038c-0.632,1.513-0.384,3.314,0.636,4.633"/>
		<path style="fill:none;stroke:#1D1D1B;stroke-linecap:round;stroke-linejoin:round;stroke-miterlimit:10;" d="M135.92,339.433
			c-0.32,1.114-0.871,2.158-1.626,3.038"/>
		<path style="fill:none;stroke:#1D1D1B;stroke-linecap:round;stroke-linejoin:round;stroke-miterlimit:10;" d="M132.173,331.276
			c2.706,0.587,4.123,3.094,4.101,5.729"/>
		<path style="fill:none;stroke:#1D1D1B;stroke-linecap:round;stroke-linejoin:round;stroke-miterlimit:10;" d="M109.767,319.159
			c2.873-0.555,5.993,0.091,8.336,1.727c2.343,1.635,3.869,4.232,4.079,6.939"/>
	</g>
	<g>
		
			<polyline style="fill:none;stroke:#FF9C40;stroke-width:3;stroke-linecap:round;stroke-linejoin:round;stroke-miterlimit:10;" points="
			417.849,142.371 429.54,154.529 446.615,129.505 		"/>
		
			<polyline style="fill:none;stroke:#FF9C40;stroke-width:3;stroke-linecap:round;stroke-linejoin:round;stroke-miterlimit:10;" points="
			71.723,119.61 83.413,131.768 100.488,106.744 		"/>
		
			<polyline style="fill:none;stroke:#FF9C40;stroke-width:3;stroke-linecap:round;stroke-linejoin:round;stroke-miterlimit:10;" points="
			47.392,289.141 59.082,301.299 76.157,276.275 		"/>
		
			<polyline style="fill:none;stroke:#FF9C40;stroke-width:3;stroke-linecap:round;stroke-linejoin:round;stroke-miterlimit:10;" points="
			435.901,284.432 447.591,296.59 464.666,271.566 		"/>
		
			<polyline style="fill:none;stroke:#FF9C40;stroke-width:3;stroke-linecap:round;stroke-linejoin:round;stroke-miterlimit:10;" points="
			251.265,73.433 262.956,85.591 280.031,60.566 		"/>
	</g>
	<g>
		
			<ellipse transform="matrix(0.235 -0.972 0.972 0.235 -39.7418 464.4568)" style="fill:#FF9C40;" cx="275.203" cy="257.477" rx="52.517" ry="52.517"/>
		<g>
			<path style="fill:none;stroke:#000000;stroke-width:3;stroke-linecap:round;stroke-linejoin:round;stroke-miterlimit:10;" d="
				M256.152,268.43c7.381,5.14,17.089,4.844,24.566,0.024c8.633-5.566,12.779-15.422,12.66-24.931
				c-0.12-9.625-4.171-19.954-13.242-25.329c-7.373-4.368-16.779-4.257-23.913,0.508c-10.952,7.316-14.04,21.929-11.016,33.517"/>
			<path style="fill:#FFFFFF;" d="M297.521,300.282l-56.851,0.35c-3.262,0.02-5.923-2.608-5.943-5.871l-0.272-44.216
				c-0.02-3.262,2.608-5.923,5.871-5.943l56.851-0.349c3.262-0.02,5.923,2.608,5.943,5.871l0.272,44.216
				C303.412,297.601,300.783,300.262,297.521,300.282z"/>
			<path style="fill:none;stroke:#1C1C1B;stroke-linecap:round;stroke-linejoin:round;stroke-miterlimit:10;" d="M299.782,302.543
				l-56.851,0.35c-3.262,0.02-5.923-2.608-5.943-5.871l-0.272-44.216c-0.02-3.262,2.608-5.923,5.871-5.943l56.851-0.349
				c3.262-0.02,5.923,2.608,5.943,5.871l0.272,44.216C305.673,299.862,303.045,302.523,299.782,302.543z"/>
			<g>
				<path d="M277.009,263.308c0.028,4.5-3.598,8.171-8.098,8.198s-8.171-3.598-8.198-8.098c-0.028-4.5,3.598-8.171,8.098-8.198
					C273.311,255.182,276.982,258.808,277.009,263.308z"/>
				<polygon points="273.631,286.337 263.801,286.397 265.068,266.737 272.122,266.694 				"/>
			</g>
		</g>
	</g>
</g>
</svg>
